<svg xmlns="http://www.w3.org/2000/svg" viewBox="0 0 1024 1024">
  <g transform="matrix(1,0,0,1,-9.490456,24.452957)">
    <path fill="#000" d="M471.373 800.127c-71.898 5.548-145.293-37.288-173.202-100.861-2.462-5.606-4.846-11.309-6.528-17.176-1.192-4.152-3.389-5.238-7.241-4.844-10.556 1.083-21.149 1.21-31.755 1.169-64.999-.248-116.848-41.838-129.847-105.544-11.06-54.185 11.013-110.737 68.002-137.767 5.737-2.721 7.887-5.843 7.548-12.217-4.041-75.964 56.789-133.297 121.035-143.09 23.804-3.629 46.575-1.0 68.966 6.955 3.766 1.339 5.535.623 7.376-2.944 29.021-56.264 74.871-91.368 136.387-104.618 82.394-17.75 168.538 15.06 214.562 90.675 8.55 14.05 15.092 29.024 19.767 44.78 1.073 3.618 2.809 4.933 6.68 4.907 77.408-.515 136.231 57.531 147.442 124.145 11.88 70.584-21.553 131.019-82.958 156.783-3.642 1.527-5.032 3.31-4.388 7.421 10.273 65.675-34.09 118.435-80.588 137.589-23.043 9.492-46.978 14.453-71.757 13.015-23.991-1.393-46.736-8.104-67.624-20.487-8.416-4.99-6.335-5.366-12.984 1.894-28.805 31.446-64.456 50.329-106.253 57.875-7.299 1.317-14.654 2.446-22.64 2.329zM419.846 316.629c-1.703 3.771-3.658 7.378-7.369 9.571-7.507 4.437-14.924 3.343-22.284-.467-23.255-12.039-47.751-14.523-73.128-9.094-54.692 11.701-91.435 64.976-82.613 119.559 1.945 12.038-2.763 19.925-14.253 24.475-6.043 2.392-12.064 4.929-17.832 7.91-36.129 18.667-51.851 56.405-45.465 93.592 8.123 47.289 48.534 84.918 101.507 81.078 13.521-.977 27.052-1.961 40.595-2.423 13.978-.475 19.519 3.977 23.101 17.42 2.203 8.259 4.617 16.442 8.093 24.279 27.772 62.608 97.407 92.524 161.156 79.289 38.529-7.997 69.682-27.871 93.104-59.725 9.262-12.595 19.227-13.653 31.983-4.239 33.682 24.858 70.488 33.66 110.844 19.675 33.741-11.692 57.693-34.025 68.801-68.629 5.489-17.1 3.982-34.41.108-51.669-2.422-10.788 1.812-18.56 12.028-22.746 4.47-1.831 9.055-3.39 13.506-5.265 25.522-10.763 45.545-27.74 56.48-53.514 16.065-37.869 12.605-75.042-9.91-108.993-25.859-38.992-63.205-56.702-110.273-52.397-11.475 1.05-19.178-3.971-22.537-15.363-1.417-4.804-2.652-9.664-4.113-14.455-24.254-79.585-104.532-128.273-188.632-110.883-58.641 12.127-99.948 46.297-122.897 103.004z"/>
    <path fill="#000" d="M476.511 630.101c6.997-33.037 13.889-65.615 20.738-97.996-2.75-1.655-5.041-1.09-7.208-1.095-21.955-.052-43.91-.136-65.864.031-6.994.053-13.166-1.31-16.504-7.997-3.429-6.868-2.579-13.868 1.689-20.091 11.883-17.326 23.849-34.6 36.053-51.7 36.522-51.174 70.794-103.86 105.458-156.285 3.281-4.962 6.472-9.995 10.01-14.769 5.651-7.628 14.727-10.125 22.755-6.58 7.706 3.399 11.288 10.667 9.661 20.308-5.549 32.896-13.182 65.375-19.738 98.072-1.786 8.902-3.983 17.722-5.995 26.58-1.761 7.755-1.764 7.769 6.054 7.772 22.326.008 44.654.094 66.981-.043 7.615-.047 14.791.776 18.699 8.305 4.057 7.818 1.812 14.964-3.057 21.857-23.712 33.57-47.176 67.316-70.941 100.852-27.097 38.237-54.271 76.423-82.379 113.931-5.812 7.755-12.613 10.372-20.789 8.154-8.092-2.196-13.602-10.663-12-18.921 1.944-10.002 4.166-19.952 6.374-30.385zm45.469-52.936c.28 2.315-2.602 4.67.61 7.871 29.469-41.247 58.678-82.131 87.887-123.016-.413-.465-.827-.931-1.242-1.397h-6.047c-19.156.002-38.31.039-57.463-.005-12.956-.03-20.174-8.966-17.616-21.749 1.09-5.45 2.337-10.867 3.475-16.307 3.937-18.839 8.751-37.471 13.904-57.237-28.62 44.874-58.896 87.138-88.571 129.902 2.682 1.913 5.159 1.446 7.497 1.452 17.11.052 34.218.003 51.327.05 15.015.04 21.517 8.342 18.722 23.081-3.592 18.945-7.992 37.708-12.483 57.355z"/>
  </g>
</svg>
